<?xml version="1.0" encoding="UTF-8" standalone="no"?>
<svg
   xmlns:dc="http://purl.org/dc/elements/1.1/"
   xmlns:cc="http://creativecommons.org/ns#"
   xmlns:rdf="http://www.w3.org/1999/02/22-rdf-syntax-ns#"
   xmlns:svg="http://www.w3.org/2000/svg"
   xmlns="http://www.w3.org/2000/svg"
   xmlns:sodipodi="http://sodipodi.sourceforge.net/DTD/sodipodi-0.dtd"
   xmlns:inkscape="http://www.inkscape.org/namespaces/inkscape"
   width="16"
   height="16"
   viewBox="0 0 16 16"
   enable-background="new 0 0 22 21.813"
   id="svg2"
   version="1.1"
   inkscape:version="0.48.2 r9819"
   sodipodi:docname="custom.svg">
  <metadata
     id="metadata16">
    <rdf:RDF>
      <cc:Work
         rdf:about="">
        <dc:format>image/svg+xml</dc:format>
        <dc:type
           rdf:resource="http://purl.org/dc/dcmitype/StillImage" />
      </cc:Work>
    </rdf:RDF>
  </metadata>
  <defs
     id="defs14" />
  <sodipodi:namedview
     pagecolor="#ffffff"
     bordercolor="#666666"
     borderopacity="1"
     objecttolerance="10"
     gridtolerance="10"
     guidetolerance="10"
     inkscape:pageopacity="0"
     inkscape:pageshadow="2"
     inkscape:window-width="640"
     inkscape:window-height="480"
     id="namedview12"
     showgrid="false"
     inkscape:zoom="12.011186"
     inkscape:cx="11"
     inkscape:cy="10.9065"
     inkscape:window-x="0"
     inkscape:window-y="0"
     inkscape:window-maximized="0"
     inkscape:current-layer="svg2" />
  <g
     id="g2996"
     transform="matrix(0.70860497,0,0,0.70860497,0.24976717,4.4125534)">
    <path
       inkscape:connector-curvature="0"
       id="path4"
       d="M 0,-5.8129998 V 16 H 22 V -5.8129998 H 0 z m 20.187,1.813 c 0,1.574 0,16.6119998 0,18.1879998 -1.576,0 -16.798,0 -18.374,0 0,-1.576 0,-16.6139998 0,-18.1879998 1.575,0 16.798,0 18.374,0 z" />
    <path
       inkscape:connector-curvature="0"
       id="path6"
       d="m 8.632,8.2370002 -5.782,-2.515 v -1.392 l 5.782,-2.503 v 1.64 l -4.029,1.543 4.029,1.602 v 1.625 z" />
    <path
       inkscape:connector-curvature="0"
       id="path8"
       d="m 9.168,9.3420002 2.093,-8.718 h 1.212 l -2.116,8.718 H 9.168 z" />
    <g
       id="g2993">
      <path
         d="m 13.001,8.2370002 v -1.625 l 4.037,-1.593 -4.037,-1.574 v -1.617 l 5.788,2.505 v 1.38 l -5.788,2.524 z"
         id="path10"
         inkscape:connector-curvature="0" />
    </g>
  </g>
</svg>
