<?xml version="1.0" encoding="UTF-8" standalone="no"?>
<!-- Generator: IcoMoon.io -->

<svg
   xmlns:dc="http://purl.org/dc/elements/1.1/"
   xmlns:cc="http://creativecommons.org/ns#"
   xmlns:rdf="http://www.w3.org/1999/02/22-rdf-syntax-ns#"
   xmlns:svg="http://www.w3.org/2000/svg"
   xmlns="http://www.w3.org/2000/svg"
   xmlns:sodipodi="http://sodipodi.sourceforge.net/DTD/sodipodi-0.dtd"
   xmlns:inkscape="http://www.inkscape.org/namespaces/inkscape"
   version="1.1"
   id="Layer_1"
   x="0px"
   y="0px"
   width="16"
   height="16"
   viewBox="0 0 16 16"
   enable-background="new 0 0 16 16"
   xml:space="preserve"
   inkscape:version="0.48.2 r9819"
   sodipodi:docname="paragraph8.svg"
   style="fill:#000000"><metadata
   id="metadata9"><rdf:RDF><cc:Work
       rdf:about=""><dc:format>image/svg+xml</dc:format><dc:type
         rdf:resource="http://purl.org/dc/dcmitype/StillImage" /></cc:Work></rdf:RDF></metadata><defs
   id="defs7" /><sodipodi:namedview
   pagecolor="#ffffff"
   bordercolor="#666666"
   borderopacity="1"
   objecttolerance="10"
   gridtolerance="10"
   guidetolerance="10"
   inkscape:pageopacity="0"
   inkscape:pageshadow="2"
   inkscape:window-width="950"
   inkscape:window-height="505"
   id="namedview5"
   showgrid="false"
   inkscape:zoom="18.631579"
   inkscape:cx="7.7288135"
   inkscape:cy="7.7288136"
   inkscape:window-x="0"
   inkscape:window-y="0"
   inkscape:window-maximized="0"
   inkscape:current-layer="Layer_1" /> <path
   d="m 12.827683,15.838983 -9.6610163,0 c -1.6008305,0 -2.89830512,-1.298441 -2.89830512,-2.898305 l 0,-9.6610169 c 0,-1.6008305 1.29747462,-2.89830517 2.89830512,-2.89830517 l 9.6610163,0 c 1.599864,0 2.898305,1.29747467 2.898305,2.89830517 l 0,9.6610169 c 0,1.599864 -1.298441,2.898305 -2.898305,2.898305 z M 13.793785,3.2796611 c 0,-0.5332882 -0.431848,-0.9661017 -0.966102,-0.9661017 l -9.6610163,0 c -0.5332882,0 -0.9661017,0.4328135 -0.9661017,0.9661017 l 0,9.6610169 c 0,0.534254 0.4328135,0.966102 0.9661017,0.966102 l 9.6610163,0 c 0.534254,0 0.966102,-0.431848 0.966102,-0.966102 z m -8.6949149,1.9322034 -0.9661017,0 0,-0.9661017 0.9661017,0 5.7966099,0 0.966101,0 0,0.9661017 -0.966101,0 z m 4.8305083,0.9661017 0,0.9661016 -3.8644066,0 0,-0.9661016 z m 0.0322,2.898305 -5.79661,0 0,-0.9661017 5.79661,0 z m 1.8999996,1.9322038 -5.9576266,0 0,-0.966102 5.9576266,0 z"
   id="path3"
   inkscape:connector-curvature="0"
   sodipodi:nodetypes="sssssssssssssssssscccccccccccccccccccccccc" /></svg>