<?xml version="1.0" encoding="UTF-8" standalone="no"?>
<!-- Generator: IcoMoon.io -->

<svg
   xmlns:dc="http://purl.org/dc/elements/1.1/"
   xmlns:cc="http://creativecommons.org/ns#"
   xmlns:rdf="http://www.w3.org/1999/02/22-rdf-syntax-ns#"
   xmlns:svg="http://www.w3.org/2000/svg"
   xmlns="http://www.w3.org/2000/svg"
   xmlns:sodipodi="http://sodipodi.sourceforge.net/DTD/sodipodi-0.dtd"
   xmlns:inkscape="http://www.inkscape.org/namespaces/inkscape"
   version="1.1"
   id="Layer_1"
   x="0px"
   y="0px"
   width="16"
   height="16"
   viewBox="0 0 16 16"
   enable-background="new 0 0 16 16"
   xml:space="preserve"
   inkscape:version="0.48.2 r9819"
   sodipodi:docname="branch.svg"
   style="fill:#000000"><metadata
   id="metadata9"><rdf:RDF><cc:Work
       rdf:about=""><dc:format>image/svg+xml</dc:format><dc:type
         rdf:resource="http://purl.org/dc/dcmitype/StillImage" /></cc:Work></rdf:RDF></metadata><defs
   id="defs7" /><sodipodi:namedview
   pagecolor="#ffffff"
   bordercolor="#666666"
   borderopacity="1"
   objecttolerance="10"
   gridtolerance="10"
   guidetolerance="10"
   inkscape:pageopacity="0"
   inkscape:pageshadow="2"
   inkscape:window-width="1705"
   inkscape:window-height="977"
   id="namedview5"
   showgrid="false"
   inkscape:zoom="21.996145"
   inkscape:cx="12.364599"
   inkscape:cy="2.5941126"
   inkscape:window-x="0"
   inkscape:window-y="0"
   inkscape:window-maximized="0"
   inkscape:current-layer="Layer_1" /> <path
   d="m 5.9204331,10.028633 0,-1.8015004 c 0,-0.2972597 0.04691,-1.0299873 -0.3245697,-1.0503876 l -3.1767221,0 0,-2.100775 3.3090708,0 4.5870419,0 2.957892,0 0,2.100775 -2.957892,0 -2.5573429,0 c 0.287296,-0.08737 0.2632971,0.6796008 0.2632971,1.0503876 l 0,1.8015004 c 0,0.580864 0.4695232,1.050247 1.0503879,1.050247 l 4.2015499,0 0,2.100436 -4.2015499,3.39e-4 c -1.7404925,0 -3.151163,-1.41158 -3.151163,-3.151022 z"
   id="path2992"
   inkscape:connector-curvature="0"
   sodipodi:nodetypes="sscccccccccssccccs" /><path
   inkscape:connector-curvature="0"
   id="path2994"
   d="m 15.783395,6.1939856 c 0,1.0908362 -0.883342,1.976153 -1.976154,1.976153 -1.092813,0 -1.976153,-0.8853168 -1.976153,-1.976153 0,-1.0908365 0.88334,-1.9761525 1.976153,-1.9761525 1.092812,0 1.976154,0.885316 1.976154,1.9761525 z" /><path
   d="m 15.783395,12.161847 c 0,1.090837 -0.883342,1.976153 -1.976154,1.976153 -1.092813,0 -1.976153,-0.885316 -1.976153,-1.976153 0,-1.090836 0.88334,-1.976153 1.976153,-1.976153 1.092812,0 1.976154,0.885317 1.976154,1.976153 z"
   id="path2996"
   inkscape:connector-curvature="0"
   sodipodi:nodetypes="sssss" /><path
   d="m 4.1239679,6.1939856 c 0,1.0908362 -0.8833405,1.976153 -1.9761529,1.976153 -1.0928127,0 -1.97615286,-0.8853168 -1.97615286,-1.976153 0,-1.0908365 0.88334016,-1.9761525 1.97615286,-1.9761525 1.0928124,0 1.9761529,0.885316 1.9761529,1.9761525 z"
   id="path3004"
   inkscape:connector-curvature="0" /><path
   sodipodi:type="arc"
   style="fill:#ffffff;fill-opacity:1;stroke:#000000;stroke-width:0.30000001;stroke-linecap:square;stroke-linejoin:round;stroke-miterlimit:4;stroke-opacity:1;stroke-dasharray:none"
   id="path2985"
   sodipodi:cx="9.0697708"
   sodipodi:cy="23.154737"
   sodipodi:rx="3.023257"
   sodipodi:ry="3.023257"
   d="m 12.093028,23.154737 a 3.023257,3.023257 0 1 1 -6.0465142,0 3.023257,3.023257 0 1 1 6.0465142,0 z"
   transform="matrix(0.35012918,0,0,0.35012918,-1.0277764,-1.9131634)" /><path
   transform="matrix(0.35012918,0,0,0.35012918,10.63165,-1.9131634)"
   d="m 12.093028,23.154737 a 3.023257,3.023257 0 1 1 -6.0465142,0 3.023257,3.023257 0 1 1 6.0465142,0 z"
   sodipodi:ry="3.023257"
   sodipodi:rx="3.023257"
   sodipodi:cy="23.154737"
   sodipodi:cx="9.0697708"
   id="path3755"
   style="fill:#ffffff;fill-opacity:1;stroke:#000000;stroke-width:0.30000001;stroke-linecap:square;stroke-linejoin:round;stroke-miterlimit:4;stroke-opacity:1;stroke-dasharray:none"
   sodipodi:type="arc" /><path
   sodipodi:type="arc"
   style="fill:#ffffff;fill-opacity:1;stroke:#000000;stroke-width:0.30000001;stroke-linecap:square;stroke-linejoin:round;stroke-miterlimit:4;stroke-opacity:1;stroke-dasharray:none"
   id="path3757"
   sodipodi:cx="9.0697708"
   sodipodi:cy="23.154737"
   sodipodi:rx="3.023257"
   sodipodi:ry="3.023257"
   d="m 12.093028,23.154737 a 3.023257,3.023257 0 1 1 -6.0465142,0 3.023257,3.023257 0 1 1 6.0465142,0 z"
   transform="matrix(0.35013305,0,0,0.35012948,10.631697,4.0551284)" /></svg>