<?xml version="1.0" encoding="utf-8"?>
<!-- Generator: Adobe Illustrator 16.0.0, SVG Export Plug-In . SVG Version: 6.00 Build 0)  -->
<!DOCTYPE svg PUBLIC "-//W3C//DTD SVG 1.1//EN" "http://www.w3.org/Graphics/SVG/1.1/DTD/svg11.dtd">
<svg version="1.1" id="Layer_1" xmlns="http://www.w3.org/2000/svg" xmlns:xlink="http://www.w3.org/1999/xlink" x="0px" y="0px"
	 width="16px" height="16px" viewBox="0 0 16 16" enable-background="new 0 0 16 16" xml:space="preserve">
<path fill="#FFFFFF" stroke="#0093DD" stroke-width="0.25" d="M4.832,0.204h10.955v9.012H13.61V8.438h0.279
	c0.142,0,0.211-0.154,0.211-0.311V7.973c0-0.207-0.069-0.362-0.211-0.362h-1.334c-0.141,0-0.28,0.155-0.28,0.362v0.155
	c0,0.156,0.14,0.311,0.28,0.311h0.351v0.777H7.57V8.438h0.28c0.141,0,0.281-0.154,0.281-0.311V7.973
	c0-0.207-0.141-0.362-0.281-0.362H6.586c-0.14,0-0.28,0.155-0.28,0.362v0.155c0,0.156,0.141,0.311,0.28,0.311h0.282v0.777H4.832
	V0.204z"/>
<path fill="#FFFFFF" stroke="#0093DD" stroke-width="0.25" d="M0.196,2.689h11.024v9.013H9.045v-0.776h0.211
	c0.14,0,0.28-0.156,0.28-0.311v-0.156c0-0.208-0.141-0.363-0.28-0.363H7.991c-0.141,0-0.28,0.155-0.28,0.363v0.156
	c0,0.154,0.139,0.311,0.28,0.311h0.281v0.776H3.005v-0.776h0.281c0.14,0,0.281-0.156,0.281-0.311v-0.156
	c0-0.208-0.141-0.363-0.281-0.363H1.952c-0.14,0-0.211,0.155-0.211,0.363v0.156c0,0.154,0.071,0.311,0.211,0.311h0.351v0.776H0.196
	V2.689z"/>
</svg>
